<svg width="11" height="18" viewBox="0 0 11 18" fill="none" xmlns="http://www.w3.org/2000/svg">
<path d="M9.79596 9.7959L2.29596 17.2959C2.08461 17.5072 1.79797 17.626 1.49908 17.626C1.2002 17.626 0.913552 17.5072 0.702208 17.2959C0.490863 17.0846 0.372131 16.7979 0.372131 16.499C0.372131 16.2001 0.490863 15.9135 0.702208 15.7021L7.40627 8.99996L0.704083 2.2959C0.599436 2.19125 0.516425 2.06702 0.45979 1.93029C0.403156 1.79356 0.374006 1.64702 0.374006 1.49902C0.374006 1.35103 0.403156 1.20448 0.45979 1.06776C0.516425 0.931028 0.599436 0.806794 0.704083 0.702147C0.80873 0.5975 0.932964 0.514489 1.06969 0.457855C1.20642 0.40122 1.35296 0.37207 1.50096 0.37207C1.64895 0.37207 1.7955 0.40122 1.93222 0.457855C2.06895 0.514489 2.19319 0.5975 2.29783 0.702147L9.79783 8.20215C9.90259 8.30679 9.98566 8.43108 10.0423 8.56789C10.0989 8.7047 10.128 8.85135 10.1278 8.99941C10.1276 9.14748 10.0982 9.29405 10.0413 9.43073C9.98432 9.56741 9.90096 9.6915 9.79596 9.7959Z" fill="#666666"/>
</svg>
