<svg width="11" height="5" viewBox="0 0 11 5" fill="none" xmlns="http://www.w3.org/2000/svg">
<path d="M5.03571 4.82993L0.688865 0.986006C0.566374 0.877687 0.49756 0.730775 0.49756 0.577589C0.49756 0.424403 0.566374 0.277491 0.688865 0.169172C0.811356 0.0608528 0.977489 1.14133e-09 1.15072 0C1.32394 -1.14133e-09 1.49008 0.0608528 1.61257 0.169172L5.49702 3.60516L9.38255 0.170133C9.4432 0.116499 9.5152 0.0739538 9.59445 0.0449272C9.67369 0.0159007 9.75863 0.000960821 9.8444 0.00096082C9.93018 0.00096082 10.0151 0.0159007 10.0944 0.0449272C10.1736 0.0739538 10.2456 0.116499 10.3063 0.170133C10.3669 0.223767 10.415 0.28744 10.4478 0.357516C10.4807 0.427593 10.4976 0.5027 10.4976 0.57855C10.4976 0.6544 10.4807 0.729507 10.4478 0.799584C10.415 0.86966 10.3669 0.933333 10.3063 0.986967L5.95941 4.83089C5.89876 4.88458 5.82673 4.92716 5.74743 4.95618C5.66814 4.9852 5.58315 5.00009 5.49733 5C5.41152 4.99991 5.32657 4.98484 5.24735 4.95566C5.16813 4.92647 5.09621 4.88375 5.03571 4.82993Z" fill="#333333"/>
</svg>
