<svg width="14" height="9" viewBox="0 0 14 9" fill="none" xmlns="http://www.w3.org/2000/svg">
<path d="M6.56208 7.97192L0.905655 2.34692C0.746262 2.18841 0.656714 1.97343 0.656714 1.74927C0.656714 1.5251 0.746262 1.31012 0.905655 1.15161C1.06505 0.993101 1.28123 0.904052 1.50665 0.904052C1.73207 0.904052 1.94825 0.993101 2.10765 1.15161L7.16237 6.17966L12.2185 1.15302C12.2974 1.07453 12.3911 1.01227 12.4942 0.969797C12.5974 0.927321 12.7079 0.905459 12.8195 0.905459C12.9311 0.905459 13.0416 0.927321 13.1448 0.969797C13.2479 1.01227 13.3416 1.07453 13.4205 1.15302C13.4994 1.2315 13.562 1.32468 13.6047 1.42722C13.6474 1.52977 13.6694 1.63968 13.6694 1.75067C13.6694 1.86167 13.6474 1.97158 13.6047 2.07412C13.562 2.17667 13.4994 2.26984 13.4205 2.34833L7.76407 7.97333C7.68515 8.0519 7.59141 8.1142 7.48823 8.15666C7.38505 8.19913 7.27445 8.22092 7.16278 8.22079C7.05111 8.22066 6.94057 8.19861 6.83748 8.1559C6.7344 8.1132 6.64081 8.05068 6.56208 7.97192Z" fill="#DC291E"/>
</svg>
